<svg xmlns="http://www.w3.org/2000/svg" id="_圖層_2" data-name="圖層 2" viewBox="0 0 625 1071"><defs><linearGradient id="_未命名漸層_2" x1="160.45" x2="548.6" y1="664.83" y2="334.69" data-name="未命名漸層 2" gradientUnits="userSpaceOnUse"><stop offset=".04" stop-color="#0071bc"/><stop offset=".29" stop-color="#1088cb"/><stop offset=".7" stop-color="#29abe2"/></linearGradient><style>.cls-1{fill-rule:evenodd}.cls-1,.cls-2{stroke:#000;stroke-miterlimit:10;stroke-width:4px}.cls-3{fill:#fff}.cls-2{fill:none}</style></defs><g id="_圖層_1-2" data-name="圖層 1"><path d="M0 0h625v1071H0z" style="fill:url(#_未命名漸層_2)"/><path d="M397.2 363.28c0-13.7-11.1-24.8-24.8-24.8H224.02c-13.7 0-24.8 11.1-24.8 24.8v41.5c0 .31.01.61.02.91 10.3 10.92 25.14 22 45.88 22h99.74c16.29 0 34.22-6.83 51.06-15.06.82-2.47 1.28-5.11 1.28-7.86v-41.5Z" class="cls-3"/><path d="M185 396.51c0-29.81 14.42 33.18 61.45 33.18h92.69c47.03 0 108.86-62.99 108.86-33.18" class="cls-2"/><path d="M257.95 410.96c0 10.52-2.45 19.04-5.47 19.04s-5.47-8.52-5.47-19.04 2.45-19.04 5.47-19.04 5.47 8.52 5.47 19.04ZM327.18 410.96c0 10.52-2.45 19.04-5.47 19.04s-5.47-8.52-5.47-19.04 2.45-19.04 5.47-19.04 5.47 8.52 5.47 19.04Z" class="cls-1"/><path d="M304.1 376.13s23.72-15.79 32.6-15.79c29.34 0 29.34 15.79 29.34 15.79M276.17 377.34s-20.93-15.56-28.77-15.56c-25.89 0-25.89 15.56-25.89 15.56" class="cls-2"/><path d="M249.13 547.56v-5.08h5.93v-8.9h5.3v8.9h4.87v5.08h-4.87v9.11c1.69-.42 3.39-.85 5.08-1.27v5.51l-5.08 1.48v15.04c.14 3.81-1.62 5.72-5.3 5.72-1.27.14-2.97.21-5.08.21l-1.06-5.3h3.81c1.69.14 2.47-.64 2.33-2.33v-11.86l-6.36 1.91-.42-6.14c.56-.14 1.55-.35 2.96-.64 1.7-.42 2.97-.71 3.81-.85v-10.59h-5.93Zm18.43.42v-4.87h17.16c2.4-3.95 4.31-7.27 5.72-9.96l5.3 2.12c-.71.85-1.69 2.26-2.97 4.24-.99 1.56-1.77 2.75-2.33 3.6h7.84v4.87h-5.51v11.86h6.78v5.08h-6.78v18.64h-5.51v-18.64h-9.74c-.14 7.49-3.25 13.91-9.32 19.28-.57-.57-1.56-1.48-2.97-2.75-.71-.57-1.2-.99-1.48-1.27 5.22-4.09 7.98-9.18 8.26-15.25h-6.14v-5.08h6.35v-11.86h-4.66Zm8.26-5.08a78.8 78.8 0 0 0-5.3-7.2l4.45-2.54c2.12 2.54 4.03 4.95 5.72 7.2l-4.87 2.54Zm1.91 16.95h9.53v-11.86h-9.53v11.86ZM314.16 582.94c-.42-2.12-.85-4.02-1.27-5.72h4.03c2.12.14 3.67.21 4.66.21 3.39.14 4.94-1.48 4.66-4.87v-19.49l16.74-11.23h-38.13v-5.3h46.39v6.35l-18.64 12.92v18.43c.28 5.65-2.54 8.47-8.47 8.47-2.4.14-5.72.21-9.96.21ZM136.02 652.18c-.37-.18-.91-.5-1.64-.96-.82-.46-1.41-.82-1.78-1.09 1.37-2.1 2.28-4.15 2.73-6.15.46-2 .68-5.01.68-9.02v-13.95h27.89v26.11c.18 3.01-1.32 4.46-4.51 4.38-1.19.09-2.64.14-4.38.14-.09-.27-.18-.68-.27-1.23-.18-1-.37-1.78-.55-2.32.46 0 1.09.04 1.91.14h1.78c1.64.09 2.41-.5 2.32-1.78v-4.51h-8.61v9.3h-3.69v-9.3h-8.34c-.18 3.28-1.37 6.7-3.55 10.25Zm3.83-17.23c0 .46-.05 1.14-.14 2.05v1.64h8.2v-5.47h-8.07v1.78Zm0-10.53v5.47h8.07v-5.47h-8.07Zm20.37 0h-8.61v5.47h8.61v-5.47Zm-8.61 8.75v5.47h8.61v-5.47h-8.61ZM193.99 642.75v-1.5h-8.48c-.37 2.01-1.09 3.69-2.19 5.06 3.01 1.09 8.79 1.69 17.36 1.78-.18.27-.46.87-.82 1.78-.37.64-.59 1.09-.68 1.37-8.57-.18-14.81-1.09-18.73-2.73-2.01 1.28-5.47 2.51-10.39 3.69-.18-.27-.46-.73-.82-1.37a47.9 47.9 0 0 1-1.23-1.91c4.74-.82 7.61-1.46 8.61-1.91-1.55-1-3.05-2.32-4.51-3.96l2.46-1.78h-3.69V626.5h11.62v-2.73h-13.95v-3.01H200v3.01h-13.81v2.73h11.35v16.27h-3.55Zm-19.55-13.26v3.01h8.07v-3.01h-8.07Zm7.79 8.75c.09-.91.14-1.91.14-3.01h-7.93v3.01h7.79Zm-7.52 3.01c2 1.91 3.69 3.14 5.06 3.69 1.09-.82 1.78-2.05 2.05-3.69h-7.11Zm11.35-6.02c0 .37-.05.87-.14 1.5 0 .73-.05 1.23-.14 1.5h8.2v-3.01h-7.93Zm7.93-5.74h-7.79v1.37c-.09.73-.14 1.28-.14 1.64h7.93v-3.01ZM204.93 651.77c-.73-.73-1.55-1.64-2.46-2.73 2.73-2 4.79-3.96 6.15-5.88-1-.82-2.46-2.1-4.38-3.83l-.41-.41c.46-1.91 1.14-5.15 2.05-9.71h-2.87v-3.42h3.42c.27-2.19.55-4.33.82-6.43l3.69.27c-.09.73-.27 1.87-.55 3.42-.18 1.28-.32 2.19-.41 2.73h5.74v3.42c-.37 5.83-1.32 10.21-2.87 13.12 1.82 1.55 3.55 3.01 5.2 4.38l-2.73 2.46c-.46-.46-1.23-1.14-2.32-2.05-.82-.73-1.46-1.28-1.91-1.64-1.28 1.82-3.33 3.92-6.15 6.29Zm2.6-13.81 2.73 2.19c1.18-2.73 1.91-6.38 2.19-10.94h-3.01c-.27 1.19-.64 2.87-1.09 5.06-.37 1.64-.64 2.87-.82 3.69Zm9.43-.41v-3.42h7.93v-4.1l5.47-5.47h-12.17v-3.42h16.68v3.69l-6.15 6.29v3.01h7.11v3.42h-7.11v9.43c.09 3.01-1.46 4.51-4.65 4.51h-4.51c0-.18-.05-.5-.14-.96-.27-1.28-.46-2.1-.55-2.46h3.83c1.55 0 2.28-.73 2.19-2.19v-8.34h-7.93ZM238.97 651.5v-26.8h3.69c.27-1 .64-2.37 1.09-4.1.09-.55.18-.96.27-1.23l3.83.55c-.37 1.64-.82 3.24-1.37 4.79h5.88v26.66h-3.42v-2.46h-6.43v2.6h-3.55Zm3.55-23.38v7.11h6.43v-7.11h-6.43Zm0 10.53v7.11h6.43v-7.11h-6.43Zm14.9 12.71c-.18-1.37-.41-2.51-.68-3.42h2.46c1.18.09 2.1.14 2.73.14 2.46 0 3.69-1.18 3.69-3.55.09-1.46.18-4.56.27-9.3.09-3.37.14-5.74.14-7.11h-7.52a89.31 89.31 0 0 1-2.46 5.06c-.18-.09-.46-.27-.82-.55-.46-.27-1.23-.68-2.32-1.23 2.1-3.83 3.74-7.84 4.92-12.03l3.69.82c-.09.37-.27.87-.55 1.5-.37 1.28-.73 2.28-1.09 3.01h9.84c-.18 9.94-.37 16.77-.55 20.51.09 4.1-1.87 6.11-5.88 6.02-1.82.09-3.78.14-5.88.14Zm2.87-9.16c-1.55-2.37-3.24-4.79-5.06-7.25l2.87-1.78c1.64 1.91 3.42 4.24 5.33 6.97l-3.14 2.05ZM273.29 627.98v-3.55h14.9c-.55-1.46-1.14-3.01-1.78-4.65l4.24-.41c.55 1.28 1.18 2.96 1.91 5.06h12.71v3.55h-19.69c0 1.64-.09 3.37-.27 5.2h16c-.09 2.19-.27 5.38-.55 9.57-.09 1.09-.14 1.87-.14 2.32-.18 4.1-2.46 6.11-6.84 6.02-.82 0-1.87.04-3.14.14h-2.87c-.09-.64-.32-1.64-.68-3.01-.09-.18-.14-.36-.14-.55h2.73c1.18.09 2.14.14 2.87.14 2.73.18 4.15-1.09 4.24-3.83.27-2.19.41-4.65.41-7.38h-12.17c-.37 6.38-3.51 11.57-9.43 15.59l-3.01-2.87c5.83-3.55 8.75-8.57 8.75-15.04.18-2.55.27-4.65.27-6.29h-8.34ZM313.21 636.05c-.64-.64-1.69-1.59-3.14-2.87-1.09-.91-1.87-1.59-2.32-2.05l2.32-2.6c.64.55 1.82 1.5 3.55 2.87 1.09.82 1.82 1.41 2.19 1.78l-2.6 2.87Zm-1.23 15.72-3.83-1.23c.91-2.37 2.19-6.33 3.83-11.89.27.09.73.27 1.37.55 1 .37 1.73.59 2.19.68-.27.82-.73 2.32-1.37 4.51-.91 3.1-1.64 5.56-2.19 7.38Zm2.32-24.61c-.55-.55-1.46-1.37-2.73-2.46-1.28-1.18-2.23-2-2.87-2.46l2.46-2.46c.46.46 1.28 1.14 2.46 2.05 1.55 1.28 2.6 2.14 3.14 2.6l-2.46 2.73Zm3.83 1.09v-3.28h8.61v-5.61h3.69v5.61h8.75v3.28h-8.75v6.15h10.25v3.28h-11.07c-2.01 2.92-4.38 6.06-7.11 9.43l10.94-.41c-.82-1.37-1.91-3.01-3.28-4.92l3.01-1.64c1 1.37 2.64 3.6 4.92 6.7 1.09 1.46 1.87 2.51 2.32 3.14l-3.28 2.05-1.5-2.46c-1.09.09-2.6.18-4.51.27-3.65.18-6.34.32-8.07.41-2.19.09-3.69.27-4.51.55l-1.5-3.28c1.09-.55 2-1.37 2.73-2.46 1.82-2.1 3.55-4.56 5.2-7.38h-8.2v-3.28h9.98v-6.15h-8.61ZM342.74 626.34v-3.14h5.47c-.09-.36-.27-.96-.55-1.78-.27-.73-.5-1.28-.68-1.64l3.69-.41 1.23 3.83h4.24v3.14h-13.4Zm1.09 25.16v-12.17h11.48v12.03h-3.01v-1.64h-5.33v1.78h-3.14Zm.14-19.96v-2.87h11.21v2.87h-11.21Zm0 5.33V634h11.21v2.87h-11.21Zm3.01 5.47v4.65h5.33v-4.65h-5.33Zm14.9-6.02v8.75c-.18 2.01.77 2.92 2.87 2.73h3.83c1.91.09 3.01-.77 3.28-2.6.27-1.55.46-2.92.55-4.1.27.09.73.27 1.37.55.91.37 1.64.59 2.19.68 0 .18-.05.41-.14.68-.18 1.82-.41 3.24-.68 4.24-.37 2.55-2.32 3.78-5.88 3.69h-5.74c-3.55.09-5.29-1.55-5.2-4.92V632.9h11.76v-8.07h-12.17v-3.42h15.72v14.9h-11.76ZM379.66 636.32l-2.32-.41c.64-3.1 1.14-6.2 1.5-9.3l2.19.27c-.37 3.37-.82 6.52-1.37 9.43Zm9.43-11.76v-2.6h8.48l-.96-2.32 3.83-.41c.09.27.23.73.41 1.37.18.64.32 1.09.41 1.37h7.93v2.6h-3.69l.96.14-1.5 2.6h5.47v2.6h-22.01v-.14l-1.09 1.91-2.19-2.19v22.56h-3.28v-32.54h3.28v6.15l3.28 2.73v-1.09h5.2l-1.37-2.6.96-.14h-4.1Zm-.14 25.84c-.55-.27-1.23-.55-2.05-.82-.27-.09-.5-.18-.68-.27.91-1.64 1.78-3.46 2.6-5.47l2.73 1.09c-.27.64-.68 1.55-1.23 2.73-.64 1.18-1.09 2.1-1.37 2.73Zm.55-7.93v-10.66h19v10.66h-8.61l2.05 3.01-2.6 1.23c-.27-.36-.64-.91-1.09-1.64-.55-1-1-1.78-1.37-2.32l.68-.27h-8.07Zm6.97 8.75c-2.83.09-4.19-1.05-4.1-3.42v-3.96h3.14v3.01c-.09 1.19.64 1.73 2.19 1.64h3.01c1.28 0 1.96-.37 2.05-1.09 0-.18.09-.5.27-.96.09-.55.18-.96.27-1.23 1 .46 1.96.82 2.87 1.09a7.47 7.47 0 0 1-.55 1.78c-.09.27-.18.55-.27.82-.37 1.64-1.73 2.41-4.1 2.32h-4.79Zm-3.69-17.09v2.05h12.44v-2.05h-12.44Zm0 3.96v2.05h12.44v-2.05h-12.44Zm2.87-13.54c.27.46.68 1.14 1.23 2.05.18.27.32.5.41.68h3.96l1.5-2.73h-7.11Zm12.71 25.7c-.27-.64-.68-1.55-1.23-2.73-.64-1.18-1.09-2.1-1.37-2.73l2.6-.96c.46.82 1.09 2.1 1.91 3.83.36.64.64 1.14.82 1.5l-2.73 1.09ZM416.43 643.16v-12.85h25.7v12.85h-11.07v2.32h14.63v2.6h-14.63v3.83h-3.55v-3.83h-14.63v-2.6h14.63v-2.32h-11.07Zm-1.5-14.77v-7.66h12.71v7.66h-12.71Zm3.14-5.2v2.73h6.43v-2.73h-6.43Zm1.91 9.71v2.6h7.52v-2.6h-7.52Zm0 5.06v2.6h7.52v-2.6h-7.52Zm10.8-9.57v-7.66h12.85v7.66h-12.85Zm7.79 4.51h-7.52v2.6h7.52v-2.6Zm-7.52 5.06v2.6h7.52v-2.6h-7.52Zm2.87-14.77v2.73h6.56v-2.73h-6.56ZM447.74 642.34v-3.42h15.31v-1.91l6.15-3.42h-15.59v-3.28h21.19v3.42l-7.93 4.51v.68h13.95v3.42h-13.95v4.79c.09 3.01-1.46 4.51-4.65 4.51h-5.47c-.09-.37-.18-.91-.27-1.64-.18-.91-.32-1.55-.41-1.91 1.55.09 3.05.14 4.51.14 1.73.09 2.55-.64 2.46-2.19v-3.69h-15.31Zm1.23-11.35v-7.52h13.95c-.37-.91-.87-2.19-1.5-3.83l4.24-.55.96 2.46c.27.82.5 1.46.68 1.91h12.3v7.52h-3.69v-4.1h-23.24v4.1h-3.69Z" class="cls-3"/></g></svg>